<?xml version="1.0" encoding="UTF-8"?> <svg xmlns="http://www.w3.org/2000/svg" width="100.338" height="100.338" viewBox="0 0 100.338 100.338"><g transform="translate(-273.014 -364.014)"><path d="M323.183,364.014a50.167,50.167,0,1,1-35.476,14.694,50.013,50.013,0,0,1,35.476-14.694Zm34.335,15.834a48.56,48.56,0,1,0,14.221,34.335,48.407,48.407,0,0,0-14.221-34.335Z" transform="translate(0 0)" fill="#1f2a30"></path><path d="M318.625,372.764a36.863,36.863,0,1,1-26.064,10.8,36.746,36.746,0,0,1,26.064-10.8Zm25.494,11.366a36.056,36.056,0,1,0,10.56,25.5,35.943,35.943,0,0,0-10.56-25.5Z" transform="translate(4.558 4.558)" fill="#1f2a30"></path><path d="M314.259,436.3c-.906,2.475-3.326,3.165-5.553,1.921a3.858,3.858,0,0,1,5.553-1.921ZM291.768,387.15c-.564-2.572,1.106-4.455,3.652-4.6a3.857,3.857,0,0,1-3.652,4.6Zm-2.237,2.92c-2-1.711-1.807-4.219.132-5.874a3.856,3.856,0,0,1-.132,5.874Zm.592.42c2.278,1.328,4.581.315,5.5-2.064a3.859,3.859,0,0,0-5.5,2.064Zm-2.546,4.312c-2.251-1.367-2.458-3.875-.808-5.819a3.855,3.855,0,0,1,.808,5.819Zm.652.321c2.459.946,4.572-.423,5.1-2.917a3.858,3.858,0,0,0-5.1,2.917Zm-1.825,4.663c-2.441-.99-3.046-3.433-1.728-5.615a3.855,3.855,0,0,1,1.728,5.615Zm.7.213c2.579.538,4.446-1.148,4.569-3.7A3.858,3.858,0,0,0,287.1,400Zm-1.056,4.894c-2.567-.589-3.556-2.9-2.6-5.267a3.857,3.857,0,0,1,2.6,5.267Zm.719.1c2.633.12,4.205-1.843,3.919-4.377a3.856,3.856,0,0,0-3.919,4.377Zm-.26,5c-2.63-.17-3.974-2.3-3.41-4.782a3.855,3.855,0,0,1,3.41,4.782Zm.726-.017c2.619-.3,3.857-2.493,3.171-4.949a3.86,3.86,0,0,0-3.171,4.949Zm.544,4.977c-2.624.252-4.291-1.63-4.132-4.175a3.856,3.856,0,0,1,4.132,4.175Zm.712-.132c2.537-.716,3.408-3.077,2.339-5.392a3.859,3.859,0,0,0-2.339,5.392Zm1.332,4.826c-2.549.669-4.5-.925-4.745-3.462a3.855,3.855,0,0,1,4.745,3.462Zm.683-.245c2.389-1.112,2.873-3.582,1.448-5.7a3.859,3.859,0,0,0-1.448,5.7Zm2.087,4.551c-2.409,1.068-4.587-.193-5.24-2.657a3.856,3.856,0,0,1,5.24,2.657Zm.634-.351c2.181-1.478,2.263-3.994.519-5.852a3.857,3.857,0,0,0-.519,5.852Zm2.788,4.16c-2.208,1.439-4.56.543-5.6-1.786a3.856,3.856,0,0,1,5.6,1.786Zm.57-.449c1.915-1.808,1.6-4.3-.424-5.86a3.855,3.855,0,0,0,.424,5.86Zm3.415,3.661c-1.948,1.773-4.414,1.264-5.81-.868a3.857,3.857,0,0,1,5.81.868Zm.491-.534c1.6-2.091.888-4.5-1.355-5.717a3.857,3.857,0,0,0,1.355,5.717Zm3.957,3.069c-1.641,2.061-4.155,1.953-5.874.07a3.856,3.856,0,0,1,5.874-.07Zm.4-.605c1.247-2.321.157-4.589-2.252-5.428a3.858,3.858,0,0,0,2.252,5.428Zm4.4,2.4c-1.291,2.3-3.79,2.592-5.789,1.008a3.857,3.857,0,0,1,5.789-1.008Zm.3-.662c.861-2.49-.578-4.554-3.089-5a3.857,3.857,0,0,0,3.089,5Zm4.911.963c.452-2.6-1.3-4.4-3.848-4.44a3.857,3.857,0,0,0,3.848,4.44Z" transform="translate(5.184 9.655)" fill="#1f2a30"></path><path d="M308.548,436.3c.906,2.475,3.326,3.165,5.553,1.921a3.858,3.858,0,0,0-5.553-1.921Zm22.491-49.147c.564-2.572-1.106-4.455-3.652-4.6a3.856,3.856,0,0,0,3.652,4.6Zm2.237,2.92c2-1.711,1.807-4.219-.134-5.874a3.857,3.857,0,0,0,.134,5.874Zm-.593.42c-2.277,1.328-4.58.315-5.5-2.064a3.858,3.858,0,0,1,5.5,2.064Zm2.546,4.312c2.251-1.367,2.459-3.875.809-5.819a3.856,3.856,0,0,0-.809,5.819Zm-.651.321c-2.461.946-4.572-.423-5.1-2.917a3.858,3.858,0,0,1,5.1,2.917Zm1.824,4.663c2.441-.99,3.046-3.433,1.728-5.615a3.856,3.856,0,0,0-1.728,5.615Zm-.694.213c-2.579.538-4.446-1.148-4.57-3.7a3.859,3.859,0,0,1,4.57,3.7Zm1.056,4.894c2.567-.589,3.556-2.9,2.6-5.267a3.857,3.857,0,0,0-2.6,5.267Zm-.719.1c-2.633.12-4.205-1.843-3.921-4.377a3.857,3.857,0,0,1,3.921,4.377Zm.26,5c2.628-.17,3.974-2.3,3.41-4.782a3.855,3.855,0,0,0-3.41,4.782Zm-.727-.017c-2.617-.3-3.855-2.493-3.17-4.949a3.858,3.858,0,0,1,3.17,4.949Zm-.543,4.977c2.624.252,4.291-1.63,4.132-4.175a3.856,3.856,0,0,0-4.132,4.175Zm-.713-.132c-2.535-.716-3.408-3.077-2.339-5.392a3.858,3.858,0,0,1,2.339,5.392Zm-1.331,4.826c2.548.669,4.5-.925,4.745-3.462a3.855,3.855,0,0,0-4.745,3.462Zm-.683-.245c-2.389-1.112-2.873-3.582-1.448-5.7a3.859,3.859,0,0,1,1.448,5.7Zm-2.087,4.551c2.409,1.068,4.587-.193,5.238-2.657a3.855,3.855,0,0,0-5.238,2.657Zm-.634-.351c-2.181-1.478-2.265-3.994-.519-5.852a3.857,3.857,0,0,1,.519,5.852Zm-2.788,4.16c2.208,1.439,4.56.543,5.6-1.786a3.856,3.856,0,0,0-5.6,1.786Zm-.57-.449c-1.916-1.808-1.6-4.3.424-5.86a3.857,3.857,0,0,1-.424,5.86Zm-3.416,3.661c1.95,1.773,4.414,1.264,5.81-.868a3.857,3.857,0,0,0-5.81.868Zm-.49-.534c-1.6-2.091-.888-4.5,1.354-5.717a3.856,3.856,0,0,1-1.354,5.717Zm-3.959,3.069c1.641,2.061,4.155,1.953,5.875.07a3.858,3.858,0,0,0-5.875-.07Zm-.4-.605c-1.247-2.321-.157-4.589,2.251-5.428a3.858,3.858,0,0,1-2.251,5.428Zm-4.4,2.4c1.29,2.3,3.789,2.592,5.789,1.008a3.857,3.857,0,0,0-5.789-1.008Zm-.3-.662c-.861-2.49.579-4.554,3.091-5a3.857,3.857,0,0,1-3.091,5Zm-4.91.963c-.453-2.6,1.3-4.4,3.848-4.44a3.858,3.858,0,0,1-3.848,4.44Z" transform="translate(18.376 9.655)" fill="#1f2a30"></path><path d="M311.668,429.559a58.3,58.3,0,0,1-10.636-5.994c-3.4-2.453-7.635-6.266-7.635-10.82V383.928h38.336v28.817c0,4.554-4.233,8.367-7.635,10.82a58.4,58.4,0,0,1-10.636,5.994l-.9.385-.9-.385Z" transform="translate(10.618 10.374)" fill="#1f2a30"></path><path d="M322.784,397.61v8.008c0,6.885-14.307,13.564-16.584,14.584V397.61Z" transform="translate(17.287 17.501)" fill="#fff" fill-rule="evenodd"></path><path d="M306.2,385.426h16.584v17.922H306.2V385.426Z" transform="translate(17.287 11.154)" fill="#1f2a30"></path><path d="M294.9,403.348V385.426h16.583v17.922Z" transform="translate(11.399 11.154)" fill="#fff" fill-rule="evenodd"></path><path d="M311.479,420.2c-2.277-1.021-16.583-7.7-16.583-14.584V397.61h16.583V420.2Z" transform="translate(11.399 17.501)" fill="#1f2a30"></path><path d="M316.912,380.266l.106,4.088a14.206,14.206,0,0,1-13.819.36l-.108-4.107,6.549,2.043a2.28,2.28,0,0,0,1.173-.128l6.1-2.257Zm-6.6-6,11.124,3.469c.246.076.123.26-.274.408L310.8,381.983a2.261,2.261,0,0,1-1.173.126l-7.719-2.406.143,5.454a.269.269,0,0,1,.146.243l0,.141h-.83l0-.119a.273.273,0,0,1,.125-.248l-.143-5.494v-.024l0-.059v-.008h0v0l0,0h0v-.008h0v0h0l0,0v0h0v0h0v-.008h0l0,0h0v0h0v0h0v0l0,0v0l0,0h0v-.006l0,0h0v0h0v0h0v0h0v0l0,0v0l0,0h0l0,0v0h0v0l0,0,0,0v0l0,0v0l0,0v0l0,0,0,0v0l0,0h0l0,0h0l0,0v0h0v0l0,0h0l0,0h0l0,0h0v0l0,0h0l0,0h0l.006-.008v0l0,0v0h0l0,0,0,0v0l0,0,0,0h0l0,0h0l0,0h0l0,0h0l0,0,0,0v0l0,0,0,0h0l.015-.012,0,0,0,0,0,0v0h0l0,0h.006l0,0h0l0,0,0,0h.006l.012,0,.014-.006.02-.006.023-.009.026-.009.03-.012.032-.012.036-.014.04-.014.043-.015.046-.017.049-.018.009,0,.041-.015.053-.018.056-.021.058-.021.061-.023.061-.023.065-.023.065-.024.068-.026.068-.026.071-.026.071-.026.073-.027.075-.027.075-.027.076-.027.078-.029.076-.029.157-.058.079-.029,1.369-.5.058-.02.055-.021.052-.018.05-.02.047-.017.044-.017.043-.015.038-.014.035-.014.032-.011.029-.011,1.2-.444a.551.551,0,0,0-.59-.129c-.625.23-4.4,1.623-4.561,1.682a.338.338,0,0,0-.236.3l-2.487-.776c-.246-.076-.125-.259.274-.406L309.14,374.4a2.263,2.263,0,0,1,1.173-.128Zm-8.852,11.34a.276.276,0,0,0-.277.269c.1.693-.741,1.151.6,2.035,1.34-.884.5-1.341.6-2.035a.275.275,0,0,0-.275-.269c-.228-.006-.417-.006-.645,0Z" transform="translate(13.212 5.325)" fill="#1f2a30"></path><path d="M283.372,430.84c.687-.31,1.247-.563,1.56-.662.216-.071.354-.084.447.046a1.271,1.271,0,0,1,.144.242c.038.085.071.1.106.088.05-.023.049-.082.008-.175-.128-.283-.351-.719-.424-.882-.087-.192-.266-.648-.478-1.115-.035-.078-.082-.126-.132-.1-.035.017-.04.061,0,.138a3.358,3.358,0,0,1,.134.376c.068.225-.036.332-.219.44-.292.166-.852.418-1.539.729l-1.247.563c-1.077.487-1.275.576-1.509.665-.254.1-.4.1-.522-.079a1.254,1.254,0,0,1-.117-.2c-.032-.07-.065-.106-.123-.081-.041.018-.03.082.012.173.12.271.332.678.411.855.093.205.274.662.4.932.05.113.09.163.132.143.058-.024.053-.075.021-.145a1.06,1.06,0,0,1-.088-.268c-.035-.172.055-.3.289-.42.219-.117.418-.207,1.5-.694l1.247-.563Zm-3.62-3.232-.006-.021c.1-.176.771-1.27,1.34-2.318.543-1,1.243-2.24,1.553-2.841a.464.464,0,0,0,.09-.3c-.02-.067-.094-.078-.26-.029l-4.732,1.291c-.421.114-.595.1-.716-.091a.865.865,0,0,1-.087-.218c-.026-.09-.062-.128-.106-.114-.059.017-.046.094-.018.19.108.367.213.643.236.725.047.157.129.522.242.908.032.112.064.193.123.175s.059-.049.034-.138a1.23,1.23,0,0,1-.072-.408c.023-.2.144-.31.6-.45l3.329-1.052.011.038c-.082.161-.864,1.481-1.223,2.137-.765,1.4-1.627,2.887-1.7,3-.1.169-.173.263-.149.345s.132.067.281.023l4.415-1.214c.651-.182.876-.216.993-.04a1.455,1.455,0,0,1,.135.326c.021.074.05.116.094.1.067-.02.055-.09.027-.186-.114-.389-.239-.733-.259-.8-.041-.143-.106-.449-.248-.934-.03-.1-.065-.167-.125-.149-.044.012-.046.062-.023.144a1.232,1.232,0,0,1,.061.4c-.008.164-.173.318-.751.5l-3.089.99Zm.067-8.689c.709-.1,1.317-.184,1.646-.19.227-.008.4.015.455.164a1.291,1.291,0,0,1,.068.274c.014.093.041.12.079.114.053-.008.07-.064.056-.164-.044-.307-.134-.789-.158-.967-.03-.216-.075-.7-.144-1.212-.012-.085-.044-.143-.1-.135-.038,0-.056.047-.044.131a3.547,3.547,0,0,1,.023.4c0,.236-.161.3-.374.357-.326.084-.934.169-1.643.268l-3.157.436-.111-.973c-.079-.687.106-.925.306-.967l.084-.02c.114-.024.151-.044.141-.106-.006-.047-.055-.055-.132-.052-.2.027-.735.078-.9.1-.114.015-.16.03-.152.084a1.731,1.731,0,0,0,.067.2,3.784,3.784,0,0,1,.113.526l.423,3.049c.035.255.061.549.068.776a1.735,1.735,0,0,1-.047.344c.008.047.056.064.16.073.064.006.785.056.908.038.084-.011.122-.032.113-.087s-.04-.064-.1-.071a.9.9,0,0,1-.287-.093c-.186-.093-.249-.272-.327-.716l-.19-1.144,3.157-.437Zm-.421-4.785c.716-.009,1.329-.018,1.656.017.227.027.4.064.43.221a1.227,1.227,0,0,1,.035.278c0,.093.026.125.064.123.055,0,.078-.055.076-.157,0-.155-.021-.357-.023-.535s-.012-.357-.014-.443c0-.234,0-.475.012-.809s.014-.762.006-1.346c0-.3-.006-.365-.208-.417a6.289,6.289,0,0,0-.864-.09c-.078,0-.14,0-.14.065s.032.068.119.084c.319.05.484.141.58.341a1.986,1.986,0,0,1,.1.73c.011.794-.1.919-.64.941-.225.011-.941.014-1.2.017l-.614.008c-.047,0-.078-.006-.079-.046,0-.186,0-.955.009-1.1.027-.289.141-.4.3-.44a1.92,1.92,0,0,1,.28-.035.062.062,0,0,0,.068-.072c0-.07-.085-.068-.147-.068s-.367-.018-.522-.023c-.4-.026-.522-.056-.569-.055s-.061.023-.061.055.04.07.1.123c.079.068.1.186.122.371s.03,1.072.033,1.244c0,.046-.032.055-.085.055l-1.967.027c-.055,0-.079-.015-.079-.053,0-.157,0-.972.017-1.1.041-.389.134-.468.272-.525a.839.839,0,0,1,.28-.052c.07,0,.108-.017.108-.07s-.047-.07-.087-.078c-.094-.014-.436-.026-.514-.032-.357-.018-.452-.056-.506-.055-.038,0-.07.008-.068.047a.733.733,0,0,0,.032.123,3.229,3.229,0,0,1,.052.335c.009.148.03,1.694.034,1.942,0,.11,0,.289-.009.491s0,.42,0,.63c0,.117.017.17.071.17s.07-.049.068-.134a1.57,1.57,0,0,1,.02-.3c.05-.257.173-.319.438-.339.248-.018.467-.021,1.649-.038l1.367-.018Zm.075-5.223c.707.1,1.316.183,1.633.266.221.062.383.125.392.283a1.276,1.276,0,0,1-.006.281c-.014.091.006.126.044.131.053.008.084-.043.1-.143.043-.309.088-.8.108-.943.015-.116.119-.681.18-1.128.015-.1,0-.157-.055-.164-.038-.006-.067.021-.075.084a3.255,3.255,0,0,1-.084.373c-.062.227-.239.249-.465.242-.328-.006-.937-.091-1.653-.19l-.108-.015c-.046-.006-.058-.03-.053-.07l.109-.668a.162.162,0,0,1,.073-.131c.129-.084.7-.367,1.168-.614a3.739,3.739,0,0,0,1.278-.9,1.565,1.565,0,0,0,.262-.8l.1-.732c.012-.093,0-.149-.058-.158-.038,0-.065.023-.074.084a1.113,1.113,0,0,1-.053.213,1.543,1.543,0,0,1-.643.791c-.54.388-1.3.824-2.257,1.389a2.18,2.18,0,0,0-1.583-1.255,1.347,1.347,0,0,0-1.127.377,2.48,2.48,0,0,0-.528,1.37c-.033.24-.091.827-.128,1.09-.023.161-.113.643-.17,1.051-.015.116-.008.172.046.179s.076-.036.088-.122a1.57,1.57,0,0,1,.065-.3c.088-.248.221-.292.485-.271.248.018.464.049,1.633.211l1.357.187Zm-2.963-1.337c-.062-.008-.09-.027-.1-.084a1.763,1.763,0,0,1,.026-.412,1.243,1.243,0,0,1,1.573-.983,1.371,1.371,0,0,1,1.094.615.778.778,0,0,1,.055.564,2.087,2.087,0,0,1-.158.575c-.032.05-.064.061-.149.05l-2.341-.326Zm2.087-5.684.006-.023c.181-.093,1.334-.656,2.376-1.233.995-.551,2.253-1.221,2.837-1.56.106-.058.214-.123.239-.205.018-.067-.04-.117-.2-.164l-4.686-1.456c-.415-.131-.555-.236-.554-.462a.89.89,0,0,1,.043-.23c.027-.09.018-.141-.027-.154s-.088.055-.117.152c-.106.365-.167.656-.192.738-.046.157-.172.508-.284.9-.033.111-.05.2.011.213.044.014.076-.011.1-.1a1.237,1.237,0,0,1,.16-.382c.126-.158.289-.184.745-.058l3.373.9-.011.038c-.157.093-1.526.785-2.181,1.144-1.4.773-2.925,1.559-3.048,1.62-.172.09-.287.128-.312.211s.076.126.225.17l4.377,1.349c.646.2.855.29.858.5a1.4,1.4,0,0,1-.061.347c-.021.074-.02.123.024.137.067.018.094-.046.123-.143.113-.388.193-.745.213-.812.041-.143.151-.435.292-.92.03-.1.035-.176-.024-.193-.044-.014-.073.027-.1.109a1.247,1.247,0,0,1-.167.373c-.094.134-.318.175-.9.02l-3.136-.826Zm5.489-8.073a.076.076,0,0,1,.082-.047l1.716.1a.126.126,0,0,1,.132.138c-.024.075-.024.109.018.129s.09-.062.155-.187c.274-.558.511-1.074.628-1.328s.135-.332.079-.357-.073.009-.1.067a1.659,1.659,0,0,1-.164.283c-.1.131-.3.29-1.057.268-1.281-.044-4.625-.216-5.092-.225-.195,0-.278.009-.307.073s.026.149.192.327l3.56,3.79c.287.3.467.549.359.893a2.372,2.372,0,0,1-.087.225c-.026.058-.024.091.018.111s.09-.009.132-.1c.169-.367.327-.765.362-.843.1-.219.262-.513.367-.739.035-.078.041-.126-.015-.152s-.067,0-.1.081l-.05.1c-.1.219-.222.24-.348.181a1.457,1.457,0,0,1-.382-.3l-.792-.826c-.035-.034-.043-.055-.026-.09l.724-1.576Zm-1.013,1.271c-.012.029-.038.026-.062.006l-1.431-1.446c-.024-.021-.053-.052-.044-.073s.049-.012.081-.006l2.03.164c.024,0,.043.02.026.056l-.6,1.3ZM285.953,390c.607.38,1.125.707,1.383.914.178.138.3.269.242.418a1.3,1.3,0,0,1-.123.254c-.049.079-.046.117-.014.138s.094-.006.149-.091c.166-.263.406-.691.5-.841.116-.186.4-.587.668-1.022.047-.071.059-.137.014-.166s-.073,0-.119.071a3.469,3.469,0,0,1-.237.319c-.151.181-.321.129-.517.034-.3-.145-.823-.471-1.43-.852l-2.7-1.7.54-.817c.382-.578.678-.64.856-.546l.078.04c.1.055.144.062.177.011s-.006-.078-.067-.126c-.172-.108-.613-.414-.751-.5-.1-.062-.143-.081-.172-.035a1.736,1.736,0,0,0-.079.2,3.792,3.792,0,0,1-.253.475l-1.638,2.607c-.137.217-.307.459-.446.637-.117.157-.224.181-.257.233s0,.085.075.158c.046.047.566.547.671.614.071.046.114.053.143.006s.011-.074-.034-.122a.845.845,0,0,1-.16-.257c-.084-.189-.017-.368.21-.759l.59-1,2.7,1.7Zm2.791-3.851c.579.482,1.052.875,1.279,1.112.158.163.23.283.155.423a1.306,1.306,0,0,1-.155.234c-.059.073-.061.111-.03.135s.094.009.158-.07c.2-.239.493-.63.608-.768.134-.161.464-.523.792-.919.055-.065.076-.128.033-.163s-.071-.011-.126.056a3.082,3.082,0,0,1-.278.284c-.172.16-.315.113-.491,0-.277-.19-.75-.582-1.329-1.065l-1.052-.873c-.909-.756-1.078-.894-1.259-1.065-.2-.185-.262-.318-.157-.5a1.355,1.355,0,0,1,.131-.195c.049-.059.067-.1.02-.144s-.088.008-.152.085c-.189.228-.464.6-.589.745-.143.173-.474.535-.663.762-.079.1-.106.154-.072.184s.09.014.14-.046a1.12,1.12,0,0,1,.2-.2c.138-.107.291-.082.5.075s.37.286,1.279,1.04l1.052.875Zm5.731-2.624a3.076,3.076,0,0,0,.217-4.526,2.82,2.82,0,0,0-4.281-.018,2.994,2.994,0,0,0-.306,4.415,2.962,2.962,0,0,0,4.37.129Zm-.023-.508c-1.1,1.008-2.627.668-3.719-.523-1.31-1.427-.894-2.482-.236-3.086.94-.862,2.409-.744,3.586.538,1.519,1.656.77,2.7.368,3.071Zm1.606-6.554.02-.012c.2.047,1.439.373,2.605.616,1.113.23,2.5.541,3.168.666a.471.471,0,0,0,.315,0c.058-.038.046-.114-.047-.257l-2.6-4.16c-.23-.37-.268-.54-.119-.712a.85.85,0,0,1,.182-.146c.079-.052.1-.1.079-.135s-.1-.017-.187.038c-.319.208-.555.389-.627.435-.137.09-.462.274-.8.493-.1.064-.166.117-.132.169s.065.043.143-.009a1.273,1.273,0,0,1,.37-.184c.2-.036.339.049.6.443L301,376.594l-.032.02c-.18-.032-1.669-.4-2.4-.555-1.565-.327-3.235-.726-3.367-.759-.189-.046-.3-.091-.374-.044s-.024.146.059.275l2.438,3.878c.362.57.458.777.322.938a1.381,1.381,0,0,1-.272.225c-.065.041-.1.081-.07.119.038.059.1.027.186-.027.339-.221.633-.44.692-.478.125-.081.4-.231.821-.507.091-.059.141-.111.108-.163s-.073-.026-.144.02a1.241,1.241,0,0,1-.37.175c-.16.04-.354-.076-.7-.575l-1.839-2.672Zm9.381-2.566a.075.075,0,0,1,.094.017l1.226,1.2a.126.126,0,0,1,.009.19c-.067.04-.09.067-.07.109s.108.011.237-.04c.573-.242,1.091-.476,1.346-.59s.319-.161.294-.217-.061-.041-.117-.015a1.676,1.676,0,0,1-.31.1c-.164.032-.415.026-.972-.49-.94-.873-3.354-3.2-3.7-3.509-.144-.131-.216-.175-.28-.146s-.079.129-.071.373l.205,5.2c.018.42-.008.721-.315.911a2.3,2.3,0,0,1-.213.113c-.056.026-.078.053-.059.1s.075.052.167.009c.368-.166.748-.364.826-.4.221-.1.534-.216.76-.318.079-.035.114-.068.088-.125s-.046-.047-.131-.009l-.106.049c-.221.1-.326.035-.383-.093a1.513,1.513,0,0,1-.088-.481l-.056-1.142c0-.049,0-.07.04-.085l1.579-.713Zm-1.6.294c-.027.014-.044,0-.05-.036l-.132-2.029c-.006-.032-.008-.075.014-.084s.046.023.065.047l1.424,1.456c.017.018.02.043-.015.059l-1.3.587Zm5.5-3.4c-.33-1.135-.391-1.344-.446-1.586-.062-.266-.04-.411.152-.507a2.119,2.119,0,0,1,.284-.108c.09-.026.129-.053.114-.106s-.071-.052-.176-.021c-.29.085-.829.266-1.008.319-.2.058-.678.173-1.028.275-.113.032-.161.062-.146.116s.065.055.148.03a1.156,1.156,0,0,1,.252-.05c.262-.02.356.082.444.331s.146.444.478,1.579l.383,1.314c.2.686.371,1.276.426,1.6.033.225.044.4-.1.473a1.2,1.2,0,0,1-.259.108c-.09.027-.114.058-.1.094.017.053.075.061.172.032.149-.044.339-.116.511-.166s.341-.107.423-.131c.306-.09.576-.16.917-.243s.73-.189,1.267-.345c.389-.114.415-.161.412-.339a6,6,0,0,0-.138-.89c-.026-.09-.044-.126-.1-.109s-.061.065-.049.135a.983.983,0,0,1-.064.5c-.128.257-.417.348-.812.464-.583.17-.791.175-.951.1-.2-.09-.347-.6-.625-1.559l-.383-1.314Zm9.711,2.044a4.558,4.558,0,0,0,1.381-.284.276.276,0,0,0,.186-.24,7.454,7.454,0,0,0,.091-1.045c0-.062-.024-.114-.079-.111s-.075.038-.088.163a1.3,1.3,0,0,1-.225.532c-.283.38-.7.49-1.386.541a2.906,2.906,0,0,1-2.09-4.637,2.024,2.024,0,0,1,1.421-.59,2.323,2.323,0,0,1,1.611.36,1.116,1.116,0,0,1,.356.69c.009.109.029.17.09.166s.081-.07.081-.186c0-.157-.036-.583-.039-.84-.006-.272.011-.368.006-.429s-.038-.084-.125-.085c-.234-.006-.487-.056-.785-.071a7.636,7.636,0,0,0-1.13.008,3.394,3.394,0,0,0-2.388,1.007,3.081,3.081,0,0,0,.389,4.408,3.891,3.891,0,0,0,2.724.643Zm5.7-.046a3.074,3.074,0,0,0,3.451-2.935,2.818,2.818,0,0,0-2.911-3.138,3,3,0,0,0-3.433,2.8,2.964,2.964,0,0,0,2.893,3.278Zm.356-.364c-1.489-.112-2.283-1.46-2.161-3.072.148-1.93,1.2-2.35,2.091-2.283,1.272.1,2.19,1.252,2.058,2.987-.169,2.24-1.445,2.409-1.988,2.368Zm6.221-2.43c.26-1.153.309-1.364.379-1.6.076-.262.166-.377.379-.368a2.051,2.051,0,0,1,.3.044c.091.02.14.015.152-.038s-.038-.081-.145-.1c-.295-.065-.855-.169-1.036-.21-.205-.046-.678-.178-1.034-.258-.114-.026-.17-.023-.182.03s.03.079.114.1a1.1,1.1,0,0,1,.245.079c.237.109.271.245.228.5s-.088.459-.35,1.611l-.3,1.335c-.158.7-.294,1.3-.4,1.606-.079.213-.155.371-.313.368a1.247,1.247,0,0,1-.28-.032c-.091-.02-.126,0-.135.033-.012.053.035.087.134.109.152.035.353.064.528.1s.35.072.433.09c.31.071.582.141.92.233s.73.19,1.276.313c.394.09.441.061.523-.1a6.01,6.01,0,0,0,.312-.847c.021-.091.021-.131-.032-.143s-.085.029-.108.1a1,1,0,0,1-.3.411c-.236.161-.532.1-.935.011-.592-.134-.776-.231-.879-.374-.128-.173-.009-.7.21-1.667l.3-1.334Zm4.862,1.436c.386-1.116.458-1.322.554-1.551.1-.253.207-.357.417-.326a2.255,2.255,0,0,1,.3.078c.088.03.137.032.155-.02s-.029-.085-.132-.12c-.286-.1-.83-.263-1.007-.324-.2-.068-.652-.251-1-.371-.111-.038-.167-.041-.186.011s.021.082.1.11a1.19,1.19,0,0,1,.234.106c.224.135.242.272.17.528-.067.24-.138.446-.525,1.562l-.447,1.294c-.234.675-.435,1.255-.579,1.551-.1.2-.195.351-.353.33a1.226,1.226,0,0,1-.274-.062c-.088-.03-.126-.018-.138.018-.017.052.026.091.122.125.148.05.344.1.513.161s.341.109.421.137c.3.1.563.2.888.333s.706.268,1.234.452c.383.132.432.108.532-.038a6.338,6.338,0,0,0,.4-.808c.03-.088.035-.126-.017-.144s-.088.018-.119.082a.962.962,0,0,1-.344.374c-.253.135-.542.043-.931-.091-.572-.2-.745-.316-.833-.47-.108-.186.068-.692.394-1.632l.447-1.294Z" transform="translate(1.386 1.4)" fill="#1f2a30" fill-rule="evenodd"></path><path d="M318.213,372.838c-.333.634-.618,1.177-.8,1.449-.132.186-.246.318-.4.272a1.219,1.219,0,0,1-.262-.1c-.082-.043-.122-.037-.14,0-.024.049.012.094.1.141.138.071.324.154.482.236s.321.16.4.2c.205.108.415.228.7.4s.665.374,1.18.646c.262.137.322.169.465.015a6.119,6.119,0,0,0,.491-.716c.036-.068.065-.125.009-.154s-.076,0-.129.064c-.2.257-.356.359-.578.347a1.967,1.967,0,0,1-.689-.257c-.7-.37-.759-.529-.523-1.011.1-.2.438-.833.561-1.068l.284-.543c.021-.043.044-.065.078-.047.166.087.843.452.966.534.242.161.283.315.245.47a2.087,2.087,0,0,1-.1.263.062.062,0,0,0,.029.094c.062.032.1-.044.131-.1s.192-.313.269-.446c.213-.338.3-.433.319-.475s.009-.065-.02-.081-.079,0-.157.032a.543.543,0,0,1-.385-.07c-.164-.07-.957-.485-1.107-.564-.042-.023-.035-.053-.009-.1l.914-1.741c.026-.047.05-.061.085-.043.137.072.853.465.963.54.323.222.347.341.332.49a.824.824,0,0,1-.09.271c-.032.061-.036.1.011.128s.084-.008.109-.038c.058-.076.23-.373.272-.438.189-.3.266-.37.29-.418.018-.033.026-.065-.009-.084a1,1,0,0,0-.125-.03,3.182,3.182,0,0,1-.316-.114c-.135-.061-1.5-.78-1.725-.9-.1-.052-.251-.141-.427-.242s-.368-.2-.554-.3c-.1-.055-.158-.067-.184-.018s.009.084.085.125a1.565,1.565,0,0,1,.257.161c.2.167.2.306.09.548s-.2.42-.753,1.466l-.636,1.211Zm7.956,5.916c.225-.318.4-.572.546-.757.163-.218.3-.28.5-.192a1.285,1.285,0,0,1,.186.1c.044.032.091.046.119.008s0-.094-.082-.152c-.21-.149-.56-.368-.756-.507s-.578-.436-.908-.669c-.088-.064-.141-.082-.178-.032s0,.078.059.119a1.5,1.5,0,0,1,.234.193c.178.193.163.335.017.555-.128.195-.3.436-.523.753l-.421.6a.277.277,0,0,1-.287.149,1.752,1.752,0,0,1-.589-.31,2.7,2.7,0,0,1-.522-3.95,2.317,2.317,0,0,1,1.684-1.142,2.241,2.241,0,0,1,1.536.494,2.487,2.487,0,0,1,1.065,1.5,1.094,1.094,0,0,1-.157.68c-.029.055-.038.1.006.128s.091.017.163-.085a10.222,10.222,0,0,1,.782-1.008c.03-.044.036-.079-.035-.138a5.294,5.294,0,0,1-.453-.426,9.41,9.41,0,0,0-1.051-.9,3.766,3.766,0,0,0-2-.794,2.9,2.9,0,0,0-2.572,1.294c-1.238,1.752-.382,3.463,1.173,4.563a4.416,4.416,0,0,0,1.732.8c.108.009.123,0,.243-.17l.494-.7Zm2.427.862c-.49.52-.913.966-1.165,1.177-.176.141-.322.24-.456.155a1.211,1.211,0,0,1-.225-.169c-.068-.064-.106-.068-.132-.039s-.015.093.059.163c.112.106.271.234.4.357s.266.239.327.3c.17.16.341.332.573.572s.537.54.961.941c.214.2.266.249.444.14a6.2,6.2,0,0,0,.666-.558c.053-.056.1-.1.05-.145s-.071-.026-.141.026a.656.656,0,0,1-.649.178,1.965,1.965,0,0,1-.6-.433c-.576-.544-.587-.715-.23-1.115.149-.169.646-.684.827-.876l.421-.447c.032-.033.059-.05.088-.024.135.129.689.663.786.776.187.219.187.379.108.519a2.086,2.086,0,0,1-.169.225.061.061,0,0,0,0,.1c.05.049.109-.014.152-.059s.268-.249.379-.357c.3-.268.4-.336.435-.37s.026-.062,0-.084-.076-.018-.158-.011c-.1.008-.205-.055-.353-.172s-.789-.725-.914-.843c-.033-.032-.018-.059.018-.1l1.351-1.43c.038-.04.065-.046.093-.02.113.106.7.68.782.782.251.3.243.421.187.561a.837.837,0,0,1-.158.234c-.049.052-.064.091-.024.128s.082.014.116-.008c.076-.058.321-.3.38-.348.263-.243.356-.284.392-.324s.043-.056.014-.082a.66.66,0,0,0-.111-.064,2.756,2.756,0,0,1-.275-.195c-.113-.1-1.238-1.159-1.419-1.329-.079-.074-.2-.2-.345-.348s-.3-.294-.453-.436c-.084-.081-.134-.106-.172-.067s-.014.082.049.141a1.569,1.569,0,0,1,.2.225c.149.216.109.348-.061.551s-.309.351-1.121,1.211l-.94.995Zm6.211,7.442a.073.073,0,0,1,0,.094l-.941,1.437a.127.127,0,0,1-.187.046c-.052-.058-.082-.074-.12-.047s.011.108.085.227c.348.514.678.976.841,1.2s.221.281.271.245.029-.067-.008-.117a1.687,1.687,0,0,1-.164-.284c-.064-.155-.107-.4.292-1.049.672-1.091,2.481-3.91,2.721-4.31.1-.167.129-.246.088-.3s-.141-.052-.379,0l-5.057,1.212c-.406.1-.707.132-.954-.131a2.392,2.392,0,0,1-.152-.187c-.036-.05-.067-.067-.1-.04s-.036.082.023.164c.234.33.5.665.552.733.14.2.315.482.459.684.05.07.09.1.14.062s.036-.055-.017-.131l-.068-.094c-.14-.2-.1-.312.017-.394a1.482,1.482,0,0,1,.453-.181l1.11-.277c.047-.014.068-.011.091.021l1.007,1.411Zm-.6-1.512c-.017-.024,0-.044.027-.056l1.965-.525c.03-.012.071-.021.085,0s-.014.049-.035.073l-1.15,1.681c-.015.02-.038.027-.061,0l-.832-1.165Zm2.067,7.941a4.5,4.5,0,0,0,.818,1.148.271.271,0,0,0,.294.071,7.347,7.347,0,0,0,.993-.338c.055-.029.1-.068.07-.117s-.065-.053-.186-.015a1.306,1.306,0,0,1-.578.009c-.461-.1-.729-.438-1.056-1.048a2.906,2.906,0,0,1,3.4-3.787,2.029,2.029,0,0,1,1.115,1.06,2.323,2.323,0,0,1,.321,1.62,1.118,1.118,0,0,1-.487.605c-.1.052-.145.094-.114.149s.094.046.2,0c.144-.059.517-.268.751-.376s.341-.138.4-.167.061-.068.027-.147c-.09-.216-.146-.468-.251-.747a7.835,7.835,0,0,0-.464-1.031,3.388,3.388,0,0,0-1.887-1.775,3.079,3.079,0,0,0-3.874,2.137,3.888,3.888,0,0,0,.514,2.751Zm4.173,4.615a.078.078,0,0,1-.029.091l-1.341,1.074a.128.128,0,0,1-.192-.014c-.03-.072-.055-.1-.1-.082s-.024.1.011.24c.172.6.341,1.139.426,1.407s.122.336.181.318.047-.056.029-.116a1.812,1.812,0,0,1-.068-.321c-.011-.167.024-.415.6-.906.978-.829,3.571-2.949,3.922-3.255.148-.128.2-.193.179-.26s-.119-.093-.362-.114l-5.183-.415c-.417-.032-.713-.094-.865-.421-.026-.058-.067-.158-.088-.225s-.043-.084-.087-.07c-.059.018-.059.067-.029.164.12.385.271.786.3.867.071.231.151.557.225.794.026.081.055.122.114.1.044-.014.052-.039.024-.129l-.035-.111c-.073-.23,0-.327.137-.37a1.544,1.544,0,0,1,.487-.03l1.142.081c.049,0,.068.012.081.049l.52,1.653Zm-.1-1.621c-.009-.03.011-.044.043-.047l2.032.111c.032,0,.075,0,.081.024s-.027.041-.055.058l-1.615,1.241c-.02.015-.044.014-.056-.023l-.429-1.364Zm1.515,5.144c-.706.117-1.313.217-1.641.233-.227.006-.4,0-.458-.152a1.256,1.256,0,0,1-.078-.271c-.015-.093-.043-.119-.081-.113-.055.009-.068.067-.052.166.026.154.075.35.1.526s.067.351.081.436c.032.192.053.464.079.759s.055.613.1.89a3.544,3.544,0,0,0,1.331,2.418,3.084,3.084,0,0,0,2.28.481,2.774,2.774,0,0,0,1.824-1.068,4.106,4.106,0,0,0,.364-3.22c-.076-.461-.18-.94-.219-1.177-.036-.214-.093-.7-.161-1.109-.018-.116-.043-.166-.1-.157s-.062.056-.049.141a1.629,1.629,0,0,1,.027.3c-.012.262-.125.344-.383.4-.242.056-.456.091-1.623.284l-1.349.225Zm1.632.715c.605-.1,1.273-.213,1.535-.248a.143.143,0,0,1,.169.065,2.13,2.13,0,0,1,.137.49,3.083,3.083,0,0,1-.406,2.306,2.638,2.638,0,0,1-1.795,1.056,2.454,2.454,0,0,1-2.017-.327,2.505,2.505,0,0,1-.846-1.673c-.1-.605.011-.931.14-1.056a1.724,1.724,0,0,1,.569-.181c.144-.032.735-.137,1.547-.272l.967-.16Zm-.659,6.712c-.716.011-1.329.018-1.656-.015-.227-.029-.4-.065-.43-.221a1.335,1.335,0,0,1-.036-.28c0-.093-.024-.123-.064-.123s-.076.056-.075.157c0,.157.02.357.023.537s.012.357.014.443c0,.233,0,.475-.012.809s-.014.762,0,1.345c0,.3,0,.367.207.417a6.051,6.051,0,0,0,.864.09c.079,0,.14,0,.14-.064s-.032-.07-.119-.084c-.319-.05-.484-.141-.579-.342a1.982,1.982,0,0,1-.1-.729c-.011-.794.1-.92.64-.943.225-.011.941-.012,1.2-.017l.615-.008c.047,0,.078.006.079.046,0,.187,0,.957-.009,1.1-.027.288-.141.4-.3.44a2.151,2.151,0,0,1-.28.035.06.06,0,0,0-.068.07c0,.07.087.07.148.068s.367.018.522.024c.4.026.522.055.569.053s.062-.023.061-.055-.04-.068-.1-.122c-.079-.07-.1-.186-.122-.373s-.03-1.072-.033-1.244c0-.046.03-.055.085-.055l1.967-.026c.055,0,.078.014.079.052,0,.157,0,.972-.017,1.1-.041.389-.134.468-.272.526a.871.871,0,0,1-.28.05c-.07,0-.108.017-.108.072s.049.068.087.076c.094.014.437.026.514.032.357.018.452.056.507.055.038,0,.07-.008.068-.047a.732.732,0,0,0-.032-.123,3.228,3.228,0,0,1-.052-.335c-.009-.148-.03-1.694-.033-1.942,0-.11,0-.289.008-.491s0-.42,0-.63c0-.116-.018-.17-.071-.17s-.07.049-.068.134a1.57,1.57,0,0,1-.02.3c-.05.257-.175.319-.438.339s-.467.021-1.649.038l-1.367.018Zm-1.363,4.621c-.255-.075-.547-.178-.564-.4a.939.939,0,0,1,.009-.234c.011-.076,0-.125-.036-.131-.07-.009-.094.05-.1.128-.035.246-.062.619-.084.765s-.09.482-.135.806c-.015.114-.011.187.059.2.038,0,.061-.047.07-.108a1.474,1.474,0,0,1,.084-.318.254.254,0,0,1,.278-.2,3.279,3.279,0,0,1,.359.075l2.948.817,0,.03c-.614.19-1.588.526-1.76.572-.228.064-1.49.508-1.871.643-.248.091-.412.148-.421.216s.053.119.391.345l3.2,2.155,0,.03-3.414,0c-.219,0-.316-.035-.326-.084s-.033-.091-.073-.1-.075.037-.116.213c-.065.3-.228,1.364-.255,1.557-.015.108,0,.2.058.211.046.006.061-.046.07-.116a1.567,1.567,0,0,1,.144-.467c.1-.221.335-.268.829-.269l4.811-.047c.166,0,.248-.035.259-.1s-.047-.117-.161-.195l-4.046-2.7,4.573-1.507c.214-.073.259-.114.268-.176s-.055-.116-.182-.158l-4.853-1.451Zm-.073,8.967c-.724-.211-1.313-.383-1.615-.511-.21-.087-.324-.167-.31-.325a1.2,1.2,0,0,1,.049-.277c.026-.09.012-.126-.026-.137s-.09.03-.117.126c-.088.3-.2.776-.253.947-.059.2-.217.665-.362,1.157-.024.082-.018.149.033.164s.07-.02.094-.1a3.1,3.1,0,0,1,.141-.373c.094-.214.245-.228.452-.192.33.064.92.236,1.644.447l1.314.383c1.135.33,1.343.391,1.577.476.257.09.367.187.345.4a1.319,1.319,0,0,1-.043.23c-.021.075-.02.123.04.141s.078-.043.1-.14c.084-.283.189-.73.243-.917.064-.216.222-.68.306-.963.035-.12.036-.184-.008-.2-.061-.018-.088.023-.11.1a1.157,1.157,0,0,1-.108.26c-.085.152-.234.19-.493.131-.243-.055-.452-.116-1.586-.446l-1.314-.383Zm-4.35,5.162a4.544,4.544,0,0,0-.332,1.37.272.272,0,0,0,.138.269,7.4,7.4,0,0,0,.9.529c.059.021.116.026.135-.024s0-.084-.109-.151a1.279,1.279,0,0,1-.386-.429,1.692,1.692,0,0,1,.1-1.484,2.907,2.907,0,0,1,5.086.084,2.025,2.025,0,0,1-.071,1.538,2.311,2.311,0,0,1-1.011,1.3,1.11,1.11,0,0,1-.777.029c-.1-.038-.166-.046-.187.012s.027.1.134.151c.138.07.541.214.776.321s.328.167.386.189c.043.017.09,0,.128-.076.1-.208.26-.417.4-.678a7.559,7.559,0,0,0,.473-1.027,3.388,3.388,0,0,0,.107-2.589,3.079,3.079,0,0,0-4.152-1.525,3.884,3.884,0,0,0-1.743,2.19Z" transform="translate(22.706 2.752)" fill="#1f2a30" fill-rule="evenodd"></path><path d="M283.285,411.639a2.178,2.178,0,1,1-2.178,2.178,2.178,2.178,0,0,1,2.178-2.178Zm71.363,0a2.178,2.178,0,1,1-2.178,2.178,2.178,2.178,0,0,1,2.178-2.178Z" transform="translate(4.216 24.809)" fill="#1f2a30"></path><path d="M302.568,399.961v2.563a10.51,10.51,0,0,0,2.027-.236l.067-.015a6.146,6.146,0,0,0-.344-.774,2.619,2.619,0,0,0-1.751-1.538Zm-.205-.427a5.883,5.883,0,1,1-4.16,1.723,5.864,5.864,0,0,1,4.16-1.723Zm3.868,2.014a5.486,5.486,0,0,0-2.433-1.411,4.233,4.233,0,0,1,.884,1.17,6.673,6.673,0,0,1,.382.867,9.111,9.111,0,0,0,1.319-.467c-.05-.055-.1-.107-.151-.158Zm-5.3-1.411a5.473,5.473,0,0,0-2.432,1.411c-.052.052-.1.1-.152.158a9.071,9.071,0,0,0,1.32.467,6.478,6.478,0,0,1,.38-.867,4.232,4.232,0,0,1,.884-1.17Zm-2.861,1.893a5.444,5.444,0,0,0-1.17,3.18h2.239a9.9,9.9,0,0,1,.4-2.646,9.355,9.355,0,0,1-1.468-.534Zm-1.17,3.592a5.44,5.44,0,0,0,1.17,3.179,9.581,9.581,0,0,1,1.468-.534,9.9,9.9,0,0,1-.4-2.645Zm1.446,3.5c.05.053.1.107.152.157a5.462,5.462,0,0,0,2.432,1.413,4.233,4.233,0,0,1-.884-1.169,6.707,6.707,0,0,1-.38-.868,9.25,9.25,0,0,0-1.32.468Zm5.454,1.57a5.474,5.474,0,0,0,2.433-1.413c.05-.05.1-.1.151-.157a9.293,9.293,0,0,0-1.319-.468,6.7,6.7,0,0,1-.382.868,4.234,4.234,0,0,1-.884,1.169Zm2.861-1.9a5.451,5.451,0,0,0,1.171-3.179h-2.24a9.836,9.836,0,0,1-.4,2.645,9.525,9.525,0,0,1,1.468.534Zm1.171-3.591a5.465,5.465,0,0,0-1.17-3.18,9.43,9.43,0,0,1-1.469.534,9.838,9.838,0,0,1,.4,2.646Zm-3.036-2.546-.111.026a10.814,10.814,0,0,1-2.114.246v2.274h2.61a9.516,9.516,0,0,0-.385-2.546Zm.385,2.958h-2.61v2.272a10.813,10.813,0,0,1,2.114.248h0l.111.024a9.494,9.494,0,0,0,.385-2.544Zm-.516,2.937-.068-.015h0a10.356,10.356,0,0,0-2.026-.237v2.564a2.623,2.623,0,0,0,1.751-1.538,6.247,6.247,0,0,0,.344-.774Zm-2.506,2.312v-2.564a10.37,10.37,0,0,0-2.026.237h0l-.067.015a6.146,6.146,0,0,0,.342.774,2.626,2.626,0,0,0,1.751,1.538Zm-2.224-2.7.109-.024h0a10.815,10.815,0,0,1,2.114-.248v-2.272h-2.608a9.372,9.372,0,0,0,.385,2.544Zm-.385-2.957h2.608v-2.274a10.815,10.815,0,0,1-2.114-.246l-.109-.026a9.394,9.394,0,0,0-.385,2.546Zm.516-2.937.065.015a10.51,10.51,0,0,0,2.027.236v-2.563a2.622,2.622,0,0,0-1.751,1.538,6.149,6.149,0,0,0-.342.774Z" transform="translate(12.224 18.503)" fill="#fff" fill-rule="evenodd"></path><path d="M316.8,402.485v5.22h.253v.368h-1.784V407.7h.253v-5.22h-.253v-.368h1.784v.368Zm-5.121,0v5.22h.253v.368h-1.786V407.7h.253v-5.22h-.253v-.368h1.786v.368Zm-2.561,0v5.22h.253v.368h-1.786V407.7h.252v-5.22h-.252v-.368h1.786v.368Zm5.122,0v5.22h.251v.368H312.7V407.7h.252v-5.22H312.7v-.368h1.784v.368Z" transform="translate(18.007 19.849)" fill="#1f2a30"></path><path d="M306.677,407.125H318.9v-.34H306.677v.34Z" transform="translate(17.536 22.281)" fill="#1f2a30"></path><path d="M307.015,407.031h11.194v-.922H307.015v.922Z" transform="translate(17.712 21.929)" fill="#1f2a30"></path><path d="M312.612,399.794l-5.6,2.075v1.275h11.194v-1.275l-5.6-2.075Z" transform="translate(17.712 18.638)" fill="#1f2a30"></path><path d="M312.437,400.152l-5.086,1.885v.408h10.172v-.408l-5.086-1.885Z" transform="translate(17.887 18.825)" fill="#fff"></path><path d="M312.4,400.224l-4.983,1.847v.235h9.967v-.235l-4.984-1.847Z" transform="translate(17.922 18.862)" fill="#1f2a30"></path><path d="M307.217,406.161H317.8v-.371h-10.58v.371Z" transform="translate(17.817 21.762)" fill="#1f2a30"></path><path d="M307.217,402.487H317.8v-.371h-10.58v.371Z" transform="translate(17.817 19.848)" fill="#1f2a30"></path><path d="M312.946,390.673s-1.84-.03-1.91.008-.015.347.015.54.949,1.31.949,1.4h1.894c0-.093.917-1.209.948-1.4s.085-.5.017-.54-1.912-.008-1.912-.008Zm-.94,2.2c.033,1.2.182,6.31.182,6.475,0,.186.757.277.757.277s.757-.091.757-.277c0-.164.151-5.27.184-6.475Z" transform="translate(19.789 13.881)" fill="#fff" fill-rule="evenodd"></path><path d="M311.918,392.62a1.7,1.7,0,0,0-.59-1.405,1.689,1.689,0,0,1-.85-1.7,2.679,2.679,0,0,1,.468-1.059,4.311,4.311,0,0,0,.406.774c0-1.655,1.776-1.676,1.8-3.151,2.748,1.281.2,2.783.78,3.748.365.608,1.337.1,1.25-.78a8.883,8.883,0,0,0-.122-.989,2.416,2.416,0,0,1,.954,2.1,2.257,2.257,0,0,1-2.637,2.689,2.236,2.236,0,0,0,1.18-1.7c-.978.406-2.268-.324-1.688-1.652a2.282,2.282,0,0,0,.335-1.574,2.086,2.086,0,0,1-.572,1.317,1.47,1.47,0,0,0-.452,1.789,1.472,1.472,0,0,1-.26,1.6Z" transform="translate(19.502 11.494)" fill="#fff" fill-rule="evenodd"></path><path d="M301.9,394.56a1.091,1.091,0,0,0-.984-.312c-.9.062-5.135.558-5.135.558l2.6-4.485.225-.05-1.344,3.179a2.268,2.268,0,0,0,1.212-.31,4.636,4.636,0,0,1,2.754-.5,3.414,3.414,0,0,1,1.487.884,3.4,3.4,0,0,1,1.487-.884,4.64,4.64,0,0,1,2.754.5,2.266,2.266,0,0,0,1.212.31l-1.346-3.179.227.05,2.6,4.485s-4.237-.5-5.135-.558a1.11,1.11,0,0,0-.969.294,1.85,1.85,0,0,1-1.653.018Zm.82-.7a3,3,0,0,0-1.932-.815,9.692,9.692,0,0,0-2.444.589,6.427,6.427,0,0,1-1.233.2,3.08,3.08,0,0,0,.893.012c.449-.068.817-.254,1.932-.446a3.034,3.034,0,0,1,1.3,0,10.031,10.031,0,0,0-3.066.671,2.977,2.977,0,0,1-1.387.18,1.751,1.751,0,0,0,1.177.081,18.833,18.833,0,0,1,2.78-.595,1.666,1.666,0,0,1,1.373.564,1.62,1.62,0,0,1,.435-.131,1.339,1.339,0,0,1,.338,0,1.643,1.643,0,0,1,.435.131,1.664,1.664,0,0,1,1.372-.564,18.83,18.83,0,0,1,2.78.595,1.751,1.751,0,0,0,1.177-.081,2.971,2.971,0,0,1-1.386-.18,10.041,10.041,0,0,0-3.068-.671,3.037,3.037,0,0,1,1.3,0c1.115.192,1.484.377,1.933.446a3.08,3.08,0,0,0,.893-.012,6.435,6.435,0,0,1-1.235-.2,9.662,9.662,0,0,0-2.443-.589,2.992,2.992,0,0,0-1.932.815Z" transform="translate(11.862 13.678)" fill="#1f2a30"></path><path d="M300.418,393.629l-.205-2.938c.035,0,.374,0,.409,0l-.2,2.938Z" transform="translate(14.169 13.894)" fill="#1f2a30"></path><path d="M291.962,422.486c-.333.578-.621,1.072-.8,1.317-.131.167-.242.287-.382.24a1.245,1.245,0,0,1-.24-.106c-.075-.044-.111-.04-.129-.008s.008.088.09.135c.125.073.3.154.44.237s.29.161.36.2c.189.11.379.228.642.4s.6.376,1.072.648c.239.138.3.17.433.034a5.826,5.826,0,0,0,.485-.649c.035-.062.065-.113.015-.142s-.071-.008-.125.055c-.192.231-.344.319-.551.3a1.859,1.859,0,0,1-.633-.266c-.639-.371-.684-.523-.447-.963.1-.186.44-.757.564-.972l.286-.494c.023-.038.043-.059.075-.041.151.087.767.453.879.534.218.16.251.306.21.449a1.936,1.936,0,0,1-.106.24.057.057,0,0,0,.023.088c.058.033.1-.035.126-.085s.189-.284.269-.406c.21-.306.294-.391.315-.429a.049.049,0,0,0-.015-.076c-.03-.017-.075,0-.148.024a.506.506,0,0,1-.356-.081c-.151-.071-.871-.488-1.01-.569-.036-.021-.029-.05,0-.094l.919-1.586c.026-.043.049-.055.081-.037.125.073.776.467.876.541.291.219.31.33.289.468a.773.773,0,0,1-.094.248c-.032.056-.038.094.006.12s.078,0,.1-.033c.055-.067.228-.336.271-.394a4.385,4.385,0,0,1,.286-.379c.018-.032.026-.061,0-.079a.586.586,0,0,0-.116-.032,3.133,3.133,0,0,1-.29-.119c-.123-.064-1.37-.786-1.571-.9-.088-.052-.228-.141-.388-.242s-.335-.2-.5-.3c-.094-.053-.144-.067-.17-.023s0,.077.073.117a1.56,1.56,0,0,1,.234.161c.181.164.173.294.062.513s-.205.385-.757,1.337l-.64,1.1Zm5.72,5.272a2.1,2.1,0,0,0,1.179.158,1.464,1.464,0,0,0,1.106-.913,2.234,2.234,0,0,0-.408-2.158l-.131-.217c-.386-.649-.446-.946-.319-1.256a.763.763,0,0,1,1.08-.367.916.916,0,0,1,.6.625.879.879,0,0,1-.006.514c-.032.081-.029.129.018.148s.1-.023.157-.17c.211-.525.318-.709.353-.8.018-.047-.006-.081-.061-.119a3.542,3.542,0,0,0-.847-.476,1.469,1.469,0,0,0-2.065.64,2.154,2.154,0,0,0,.348,1.994l.211.367a1.384,1.384,0,0,1,.222,1.341.878.878,0,0,1-1.209.4,1,1,0,0,1-.686-1.066,1.514,1.514,0,0,1,.079-.367c.021-.055.04-.119-.021-.141s-.1.043-.151.141-.242.5-.391.865c-.059.147-.053.19.035.28a2.493,2.493,0,0,0,.91.572Zm7.028-.167c-.152.649-.283,1.206-.388,1.494-.07.2-.148.345-.3.341a1.251,1.251,0,0,1-.26-.032c-.085-.02-.119,0-.126.031s.032.082.123.1c.283.065.732.149.894.187.2.047.637.172,1.1.28.078.018.138.011.151-.038s-.023-.065-.1-.082a3.532,3.532,0,0,1-.353-.113c-.2-.079-.21-.243-.186-.447.036-.31.166-.868.318-1.516l.678-2.893.884.23c.625.161.77.4.741.59l-.012.079c-.017.108-.011.146.044.16s.067-.029.091-.1c.043-.183.178-.665.213-.812.024-.106.027-.149-.023-.161a1.4,1.4,0,0,0-.2-.009,3.458,3.458,0,0,1-.5-.079l-2.792-.656c-.233-.055-.5-.131-.7-.2-.173-.055-.228-.143-.284-.155-.041-.011-.073.027-.116.114-.027.053-.312.663-.338.776-.02.079-.014.117.036.129s.07-.014.1-.067a.857.857,0,0,1,.178-.219c.141-.131.319-.126.732-.044l1.057.217-.677,2.893Zm5.2,2.905a.442.442,0,0,0,.484-.427.419.419,0,0,0-.409-.453.436.436,0,0,0-.474.408.421.421,0,0,0,.4.473Zm8.573-.023c.455-.035.569-.065.611-.265a7.925,7.925,0,0,0,.131-1.049c0-.071-.017-.135-.067-.132s-.064.033-.079.122a.848.848,0,0,1-.774.706c-.265.058-1.116.129-1.24.138l-.491.036c-.035,0-.052-.017-.018-.049.876-.815,2.336-2.154,2.23-3.556-.065-.844-.659-1.5-1.93-1.4a2.741,2.741,0,0,0-1.287.374c-.076.058-.082.087-.076.152.015.208.1.806.109.87.014.087.04.135.075.132.073,0,.09-.072.085-.145a1.172,1.172,0,0,1,.249-.716,1.03,1.03,0,0,1,.747-.318c.36-.027,1.007.155,1.094,1.3.116,1.524-1.235,2.76-2.18,3.726-.067.07-.134.14-.131.2a.106.106,0,0,0,.109.094l2.832-.216Zm6.773-4.128c-.259-1.122-.975-2.519-2.373-2.2-1.307.3-1.591,1.713-1.211,3.358.231,1,.984,2.525,2.374,2.2,1.215-.28,1.612-1.614,1.209-3.364Zm-.764.465c.316,1.37.187,2.418-.385,2.551-.776.179-1.39-1.092-1.672-2.313-.371-1.609-.158-2.424.371-2.546.77-.178,1.4,1.089,1.685,2.309Zm4.867-1.057c.263.643.479,1.221.569,1.529.067.224.07.33-.126.464a4.925,4.925,0,0,1-.52.262c-.026.011-.046.041-.026.088s.064.044.138.015c.43-.172.987-.417,1.142-.479.181-.073.621-.224,1.132-.427.074-.03.1-.056.084-.1a.067.067,0,0,0-.087-.044,4.482,4.482,0,0,1-.461.137c-.234.04-.307-.049-.414-.256-.146-.286-.373-.858-.631-1.5l-.5-1.246c-.411-1.03-.636-1.713-.657-1.766s-.076-.134-.137-.109-.1.093-.141.158c-.166.269-1.119,1.632-1.141,1.655a.13.13,0,0,0-.029.122.08.08,0,0,0,.082.053.285.285,0,0,0,.084-.065,5.5,5.5,0,0,1,.653-.634c.1-.04.132.041.2.2.091.228.205.519.351.881l.433,1.068Zm7.147-.858a1.711,1.711,0,0,0,.84-2.359,1.978,1.978,0,0,0-1.959-.732,1.533,1.533,0,0,0,.24-1.7c-.356-.605-1.08-.651-1.842-.2-1.063.624-1.1,1.513-.817,2a1.563,1.563,0,0,0,1.577.611,1.845,1.845,0,0,0-.327,2.075c.45.768,1.363.847,2.287.3Zm-1.6-.756a1.6,1.6,0,0,1,.026-1.646c.747,0,1.419,0,1.786.624a1.022,1.022,0,0,1-.327,1.462,1.083,1.083,0,0,1-1.484-.44Zm.1-3.585a1.153,1.153,0,0,1-.05,1.316c-.756.015-1.174-.084-1.4-.471a.823.823,0,0,1,.328-1.185.8.8,0,0,1,1.124.341Z" transform="translate(9.055 28.763)" fill="#1f2a30" fill-rule="evenodd"></path></g></svg> 